<svg width="44" height="44" viewBox="0 0 44 44" fill="none" xmlns="http://www.w3.org/2000/svg">
<path d="M0 22C0 9.84974 9.84974 0 22 0C34.1503 0 44 9.84974 44 22C44 34.1503 34.1503 44 22 44C9.84974 44 0 34.1503 0 22Z" fill="#F4F0DD"/>
<mask id="mask0_4057_147" style="mask-type:alpha" maskUnits="userSpaceOnUse" x="0" y="0" width="44" height="44">
<path d="M0 22C0 9.84974 9.84974 0 22 0C34.1503 0 44 9.84974 44 22C44 34.1503 34.1503 44 22 44C9.84974 44 0 34.1503 0 22Z" fill="#F4F0DD"/>
</mask>
<g mask="url(#mask0_4057_147)">
<g style="mix-blend-mode:color-burn" opacity="0.18">
<rect x="-17" y="-13" width="70" height="60" fill="#3D382E"/>
</g>
</g>
<path d="M19 14L27 22L19 30" stroke="#92908A" stroke-width="2.75" stroke-linecap="round" stroke-linejoin="round"/>
</svg>
