<svg width="26" height="26" viewBox="0 0 26 26" fill="none" xmlns="http://www.w3.org/2000/svg">
<g clip-path="url(#clip0_4338_2615)">
<path d="M4.47583 8.81854C4.47583 7.70945 4.91641 6.64579 5.70066 5.86154C6.4849 5.0773 7.54856 4.63672 8.65765 4.63672H17.0213C18.1304 4.63672 19.194 5.0773 19.9783 5.86154C20.7625 6.64579 21.2031 7.70945 21.2031 8.81854V17.1822C21.2031 18.2913 20.7625 19.3549 19.9783 20.1392C19.194 20.9234 18.1304 21.364 17.0213 21.364H8.65765C7.54856 21.364 6.4849 20.9234 5.70066 20.1392C4.91641 19.3549 4.47583 18.2913 4.47583 17.1822V8.81854Z" stroke="#F4F0DD" stroke-width="2" stroke-linecap="round" stroke-linejoin="round"/>
<path d="M9.70312 13.0006C9.70312 13.8324 10.0336 14.6302 10.6217 15.2184C11.2099 15.8065 12.0077 16.137 12.8395 16.137C13.6713 16.137 14.4691 15.8065 15.0572 15.2184C15.6454 14.6302 15.9759 13.8324 15.9759 13.0006C15.9759 12.1688 15.6454 11.3711 15.0572 10.7829C14.4691 10.1947 13.6713 9.86426 12.8395 9.86426C12.0077 9.86426 11.2099 10.1947 10.6217 10.7829C10.0336 11.3711 9.70312 12.1688 9.70312 13.0006Z" stroke="#F4F0DD" stroke-width="2" stroke-linecap="round" stroke-linejoin="round"/>
<path d="M17.5439 8.2959V8.30642" stroke="#F4F0DD" stroke-width="2" stroke-linecap="round" stroke-linejoin="round"/>
</g>
<defs>
<clipPath id="clip0_4338_2615">
<rect width="25.0909" height="25.0909" fill="white" transform="translate(0.293945 0.455078)"/>
</clipPath>
</defs>
</svg>
