<svg width="24" height="24" viewBox="0 0 24 24" fill="none" xmlns="http://www.w3.org/2000/svg">
<g clip-path="url(#clip0_4338_2628)">
<path d="M22.9788 4.75816C22.6175 4.91842 22.246 5.05368 21.8664 5.16348C22.3158 4.65526 22.6584 4.05726 22.8676 3.40287C22.9145 3.25619 22.8659 3.09564 22.7453 2.9997C22.6249 2.9037 22.4576 2.8922 22.325 2.97077C21.5189 3.44887 20.6492 3.79246 19.7373 3.99338C18.8187 3.09578 17.5711 2.58496 16.2813 2.58496C13.5587 2.58496 11.3438 4.79986 11.3438 7.52232C11.3438 7.73674 11.3574 7.94997 11.3842 8.16023C8.00581 7.86361 4.86497 6.20308 2.70816 3.55742C2.6313 3.46312 2.51289 3.41229 2.39165 3.42201C2.27035 3.43151 2.16136 3.49992 2.10007 3.60505C1.66263 4.35566 1.43137 5.21416 1.43137 6.08764C1.43137 7.27733 1.85613 8.40611 2.60644 9.28813C2.3783 9.20911 2.15691 9.11036 1.9456 8.99306C1.83216 8.92992 1.69372 8.93088 1.58102 8.99551C1.46824 9.06013 1.39754 9.17899 1.39457 9.3089C1.39405 9.33079 1.39405 9.35267 1.39405 9.37486C1.39405 11.1507 2.34981 12.7495 3.81105 13.6209C3.68552 13.6083 3.56005 13.5902 3.43541 13.5663C3.30691 13.5418 3.17477 13.5868 3.08811 13.6848C3.0013 13.7828 2.97259 13.9193 3.01258 14.0439C3.55345 15.7326 4.94599 16.9747 6.62944 17.3533C5.23319 18.2279 3.63647 18.6859 1.96029 18.6859C1.61054 18.6859 1.25879 18.6654 0.914535 18.6246C0.743519 18.6043 0.579996 18.7053 0.521754 18.8679C0.463513 19.0306 0.525242 19.212 0.670735 19.3053C2.82405 20.686 5.31392 21.4157 7.871 21.4157C12.8979 21.4157 16.0426 19.0452 17.7954 17.0566C19.9812 14.577 21.2347 11.2949 21.2347 8.05199C21.2347 7.91651 21.2327 7.7797 21.2285 7.64333C22.0909 6.99362 22.8333 6.20731 23.4375 5.30356C23.5292 5.1663 23.5193 4.9849 23.413 4.85855C23.3068 4.73212 23.1299 4.69124 22.9788 4.75816Z" fill="#F4F0DD"/>
</g>
<defs>
<clipPath id="clip0_4338_2628">
<rect width="23" height="23" fill="white" transform="translate(0.5 0.5)"/>
</clipPath>
</defs>
</svg>
