<svg width="26" height="26" viewBox="0 0 26 26" fill="none" xmlns="http://www.w3.org/2000/svg">
<g clip-path="url(#clip0_4338_2589)">
<path d="M3.67139 22.4099L5.39639 18.4372C4.07667 16.5638 3.48599 14.2732 3.73521 11.9952C3.98442 9.71723 5.05639 7.60851 6.74994 6.06478C8.4435 4.52104 10.6422 3.64841 12.9335 3.61065C15.2247 3.5729 17.451 4.37261 19.1945 5.85971C20.938 7.34681 22.0788 9.41907 22.403 11.6876C22.7271 13.9561 22.2122 16.265 20.9549 18.1808C19.6977 20.0967 17.7844 21.4878 15.5743 22.0933C13.3642 22.6987 11.009 22.4767 8.95093 21.469L3.67139 22.4099Z" stroke="#F4F0DD" stroke-width="2" stroke-linecap="round" stroke-linejoin="round"/>
<path d="M9.94434 10.91C9.94434 11.0486 9.99941 11.1816 10.0974 11.2796C10.1955 11.3776 10.3284 11.4327 10.4671 11.4327C10.6057 11.4327 10.7387 11.3776 10.8367 11.2796C10.9347 11.1816 10.9898 11.0486 10.9898 10.91V9.86452C10.9898 9.72589 10.9347 9.59293 10.8367 9.4949C10.7387 9.39687 10.6057 9.3418 10.4671 9.3418C10.3284 9.3418 10.1955 9.39687 10.0974 9.4949C9.99941 9.59293 9.94434 9.72589 9.94434 9.86452V10.91ZM9.94434 10.91C9.94434 12.2963 10.4951 13.6259 11.4754 14.6062C12.4557 15.5865 13.7852 16.1373 15.1716 16.1373M15.1716 16.1373H16.2171C16.3557 16.1373 16.4887 16.0822 16.5867 15.9841C16.6847 15.8861 16.7398 15.7532 16.7398 15.6145C16.7398 15.4759 16.6847 15.3429 16.5867 15.2449C16.4887 15.1469 16.3557 15.0918 16.2171 15.0918H15.1716C15.033 15.0918 14.9 15.1469 14.802 15.2449C14.704 15.3429 14.6489 15.4759 14.6489 15.6145C14.6489 15.7532 14.704 15.8861 14.802 15.9841C14.9 16.0822 15.033 16.1373 15.1716 16.1373Z" stroke="#F4F0DD" stroke-width="2" stroke-linecap="round" stroke-linejoin="round"/>
</g>
<defs>
<clipPath id="clip0_4338_2589">
<rect width="25.0909" height="25.0909" fill="white" transform="translate(0.535156 0.455078)"/>
</clipPath>
</defs>
</svg>
