<svg width="26" height="26" viewBox="0 0 26 26" fill="none" xmlns="http://www.w3.org/2000/svg">
<path d="M10.6253 16.4518V9.54965L16.693 13.0011L10.6253 16.4518ZM24.1214 7.37692C23.8474 6.3699 23.0734 5.59122 22.0896 5.31566L22.0687 5.31102C19.5972 4.99676 16.7387 4.81718 13.8376 4.81718C13.5427 4.81718 13.2485 4.81873 12.9552 4.8226L13.0001 4.82182C12.7508 4.81873 12.4575 4.81641 12.1625 4.81641C9.26145 4.81641 6.40138 4.99598 3.59394 5.34353L3.92988 5.30947C2.92595 5.59044 2.15191 6.36835 1.88332 7.35525L1.87867 7.37538C1.56906 9.00782 1.39258 10.8864 1.39258 12.806C1.39258 12.8741 1.39258 12.9423 1.39335 13.0096V12.9988C1.39335 13.056 1.39258 13.1242 1.39258 13.1923C1.39258 15.1119 1.56983 16.9897 1.90809 18.811L1.87867 18.6222C2.15268 19.6292 2.92672 20.4079 3.91053 20.6834L3.93142 20.6881C6.40293 21.0023 9.26145 21.1819 12.1625 21.1819C12.4567 21.1819 12.7508 21.1804 13.045 21.1765L13.0001 21.1773C13.2493 21.1804 13.5434 21.1827 13.8376 21.1827C16.7394 21.1827 19.5987 21.0031 22.4062 20.6556L22.0702 20.6896C23.0749 20.4094 23.849 19.6307 24.1183 18.6438L24.123 18.6237C24.4318 16.9913 24.6083 15.1127 24.6083 13.1938C24.6083 13.1257 24.6083 13.0576 24.6075 12.9903V13.0003C24.6075 12.943 24.6083 12.8749 24.6083 12.8068C24.6083 10.8872 24.4311 9.00937 24.0928 7.18806L24.1214 7.37692Z" fill="#F4F0DD"/>
</svg>
