<svg width="1922" height="946" viewBox="0 0 1922 946" fill="none" xmlns="http://www.w3.org/2000/svg">
<g clip-path="url(#clip0_4137_2902)">
<path d="M342.898 367C341.7 367 340.703 366.093 340.587 364.905C334.19 298.206 380.701 231.627 443.561 208.192C443.632 208.167 443.699 208.139 443.769 208.114C445.7 207.404 446.928 210.15 445.112 211.116C445.054 211.146 444.997 211.179 444.937 211.209C390.707 239.771 354.002 292.94 346.219 353.505C345.679 357.212 345.264 361.375 344.871 365.224C344.769 366.233 343.916 367 342.898 367Z" fill="#F4F0DD"/>
</g>
<g clip-path="url(#clip1_4137_2902)">
<path d="M1032.1 514C1033.3 514 1034.3 514.907 1034.41 516.095C1040.81 582.794 994.299 649.373 931.439 672.808C931.368 672.833 931.301 672.861 931.231 672.886C929.3 673.596 928.072 670.85 929.888 669.884C929.946 669.854 930.003 669.821 930.063 669.791C984.293 641.229 1021 588.06 1028.78 527.495C1029.32 523.788 1029.74 519.625 1030.13 515.776C1030.23 514.767 1031.08 514 1032.1 514Z" fill="#F4F0DD"/>
</g>
<circle cx="484.5" cy="204.5" r="3.5" transform="rotate(90 484.5 204.5)" fill="#F4F0DD"/>
<circle cx="869.5" cy="672.5" r="3.5" transform="rotate(90 869.5 672.5)" fill="#F4F0DD"/>
<circle cx="501.5" cy="204.5" r="3.5" transform="rotate(90 501.5 204.5)" fill="#F4F0DD"/>
<circle cx="886.5" cy="672.5" r="3.5" transform="rotate(90 886.5 672.5)" fill="#F4F0DD"/>
<circle cx="518.5" cy="204.5" r="3.5" transform="rotate(90 518.5 204.5)" fill="#F4F0DD"/>
<circle cx="903.5" cy="672.5" r="3.5" transform="rotate(90 903.5 672.5)" fill="#F4F0DD"/>
<defs>
<clipPath id="clip0_4137_2902">
<rect width="106" height="159" fill="white" transform="translate(340 208)"/>
</clipPath>
<clipPath id="clip1_4137_2902">
<rect width="106" height="159" fill="white" transform="translate(1035 673) rotate(180)"/>
</clipPath>
</defs>
</svg>
